<svg width="403" height="403" viewBox="0 0 403 403" fill="none" xmlns="http://www.w3.org/2000/svg">
<circle cx="201.5" cy="201.5" r="201.5" fill="url(#paint0_radial)"/>
<rect x="122" y="128" width="159" height="105" rx="5" fill="white"/>
<path d="M218 249C218 249 210.837 249 202 249C193.163 249 186 249 186 249C186 240.163 193.163 233 202 233C210.837 233 218 240.163 218 249Z" fill="white"/>
<rect x="186" y="249" width="32" height="27" fill="white"/>
<circle cx="202" cy="251" r="10" fill="#2174EA" fill-opacity="0.65"/>
<path d="M161.412 179.264C161.253 179.199 161.076 179.152 160.88 179.124C160.693 179.087 160.465 179.068 160.194 179.068C159.811 179.068 159.433 179.138 159.06 179.278C158.696 179.418 158.369 179.647 158.08 179.964C157.8 180.281 157.571 180.697 157.394 181.21C157.226 181.723 157.142 182.353 157.142 183.1C157.142 183.772 157.217 184.36 157.366 184.864C157.525 185.368 157.739 185.788 158.01 186.124C158.29 186.46 158.621 186.712 159.004 186.88C159.396 187.048 159.83 187.132 160.306 187.132C160.549 187.132 160.773 187.113 160.978 187.076C161.193 187.029 161.389 186.969 161.566 186.894V185.494H162.602V187.384L162.616 187.412C162.336 187.627 161.981 187.809 161.552 187.958C161.123 188.098 160.6 188.168 159.984 188.168C159.396 188.168 158.85 188.07 158.346 187.874C157.851 187.669 157.422 187.361 157.058 186.95C156.694 186.539 156.409 186.017 156.204 185.382C156.008 184.738 155.91 183.977 155.91 183.1C155.91 182.185 156.022 181.411 156.246 180.776C156.47 180.132 156.773 179.609 157.156 179.208C157.539 178.797 157.982 178.499 158.486 178.312C158.999 178.125 159.545 178.032 160.124 178.032C160.441 178.032 160.717 178.046 160.95 178.074C161.183 178.093 161.389 178.125 161.566 178.172C161.743 178.209 161.897 178.261 162.028 178.326C162.168 178.391 162.303 178.466 162.434 178.55H162.448V180.762H161.412V179.264ZM164.193 184.5C164.193 183.371 164.487 182.479 165.075 181.826C165.663 181.163 166.503 180.832 167.595 180.832C168.183 180.832 168.687 180.93 169.107 181.126C169.536 181.313 169.891 181.569 170.171 181.896C170.451 182.223 170.656 182.61 170.787 183.058C170.927 183.506 170.997 183.987 170.997 184.5C170.997 185.06 170.922 185.569 170.773 186.026C170.623 186.474 170.404 186.857 170.115 187.174C169.825 187.491 169.466 187.739 169.037 187.916C168.617 188.084 168.136 188.168 167.595 188.168C167.016 188.168 166.512 188.075 166.083 187.888C165.653 187.692 165.299 187.431 165.019 187.104C164.739 186.777 164.529 186.39 164.389 185.942C164.258 185.494 164.193 185.013 164.193 184.5ZM165.355 184.5C165.355 184.827 165.392 185.153 165.467 185.48C165.551 185.807 165.681 186.101 165.859 186.362C166.036 186.623 166.265 186.833 166.545 186.992C166.834 187.151 167.184 187.23 167.595 187.23C168.341 187.23 168.901 187.001 169.275 186.544C169.657 186.077 169.849 185.396 169.849 184.5C169.849 184.164 169.807 183.837 169.723 183.52C169.648 183.193 169.517 182.899 169.331 182.638C169.153 182.377 168.92 182.167 168.631 182.008C168.351 181.849 168.005 181.77 167.595 181.77C166.848 181.77 166.288 181.999 165.915 182.456C165.541 182.913 165.355 183.595 165.355 184.5ZM175.457 188V183.338C175.457 183.142 175.448 182.955 175.429 182.778C175.42 182.591 175.387 182.428 175.331 182.288C175.284 182.139 175.21 182.022 175.107 181.938C175.014 181.854 174.888 181.812 174.729 181.812C174.412 181.812 174.141 181.943 173.917 182.204C173.702 182.465 173.539 182.792 173.427 183.184V188H172.363V181H173.091L173.301 181.854H173.357C173.45 181.714 173.539 181.583 173.623 181.462C173.716 181.331 173.819 181.219 173.931 181.126C174.052 181.033 174.192 180.963 174.351 180.916C174.51 180.86 174.71 180.832 174.953 180.832C175.093 180.832 175.238 180.855 175.387 180.902C175.536 180.939 175.672 181.005 175.793 181.098C175.924 181.182 176.036 181.299 176.129 181.448C176.222 181.597 176.283 181.779 176.311 181.994C176.526 181.63 176.764 181.345 177.025 181.14C177.296 180.935 177.664 180.832 178.131 180.832C178.439 180.832 178.686 180.883 178.873 180.986C179.069 181.089 179.218 181.238 179.321 181.434C179.433 181.621 179.508 181.849 179.545 182.12C179.592 182.381 179.615 182.675 179.615 183.002V188H178.551V183.24C178.551 183.044 178.542 182.862 178.523 182.694C178.504 182.517 178.467 182.363 178.411 182.232C178.364 182.101 178.294 181.999 178.201 181.924C178.117 181.849 178 181.812 177.851 181.812C177.524 181.812 177.249 181.943 177.025 182.204C176.801 182.465 176.633 182.839 176.521 183.324V188H175.457ZM181.654 188V187.062H184.09V181.938H181.654V181H185.21V187.062H187.59V188H181.654ZM183.712 179.012C183.712 178.76 183.796 178.545 183.964 178.368C184.132 178.181 184.346 178.088 184.608 178.088C184.878 178.088 185.102 178.181 185.28 178.368C185.466 178.545 185.56 178.76 185.56 179.012C185.56 179.255 185.466 179.46 185.28 179.628C185.102 179.796 184.878 179.88 184.608 179.88C184.346 179.88 184.132 179.796 183.964 179.628C183.796 179.46 183.712 179.255 183.712 179.012ZM189.88 183.45C189.88 183.366 189.875 183.259 189.866 183.128C189.866 182.988 189.861 182.848 189.852 182.708C189.843 182.559 189.829 182.414 189.81 182.274C189.801 182.134 189.787 182.013 189.768 181.91H188.83V181H190.706L190.832 182.134H190.902C190.995 181.975 191.117 181.821 191.266 181.672C191.425 181.513 191.607 181.373 191.812 181.252C192.017 181.121 192.246 181.019 192.498 180.944C192.75 180.869 193.016 180.832 193.296 180.832C193.725 180.832 194.103 180.879 194.43 180.972C194.766 181.065 195.041 181.233 195.256 181.476C195.48 181.709 195.648 182.031 195.76 182.442C195.872 182.843 195.928 183.357 195.928 183.982V188H194.836V184.192C194.836 183.417 194.71 182.834 194.458 182.442C194.206 182.05 193.749 181.854 193.086 181.854C192.843 181.854 192.605 181.905 192.372 182.008C192.148 182.101 191.943 182.227 191.756 182.386C191.569 182.545 191.406 182.731 191.266 182.946C191.126 183.151 191.023 183.371 190.958 183.604V188H189.88V183.45ZM204.309 188.35C204.309 188.789 204.225 189.171 204.057 189.498C203.889 189.834 203.655 190.109 203.357 190.324C203.067 190.539 202.727 190.697 202.335 190.8C201.943 190.912 201.518 190.968 201.061 190.968C200.51 190.968 200.029 190.912 199.619 190.8C199.208 190.688 198.853 190.543 198.555 190.366L199.087 189.372C199.171 189.447 199.278 189.517 199.409 189.582C199.549 189.657 199.707 189.722 199.885 189.778C200.062 189.843 200.249 189.895 200.445 189.932C200.65 189.969 200.851 189.988 201.047 189.988C201.457 189.988 201.798 189.951 202.069 189.876C202.349 189.801 202.573 189.685 202.741 189.526C202.909 189.367 203.03 189.162 203.105 188.91C203.179 188.658 203.217 188.35 203.217 187.986V187.202H203.161C202.946 187.51 202.671 187.748 202.335 187.916C201.999 188.084 201.565 188.168 201.033 188.168C199.969 188.168 199.185 187.874 198.681 187.286C198.186 186.689 197.939 185.765 197.939 184.514C197.939 183.319 198.256 182.419 198.891 181.812C199.525 181.196 200.468 180.888 201.719 180.888C202.297 180.888 202.787 180.93 203.189 181.014C203.599 181.089 203.973 181.187 204.309 181.308V188.35ZM201.187 187.23C201.756 187.23 202.204 187.085 202.531 186.796C202.857 186.497 203.086 186.045 203.217 185.438V182.12C202.806 181.924 202.232 181.826 201.495 181.826C200.748 181.826 200.16 182.045 199.731 182.484C199.301 182.923 199.087 183.595 199.087 184.5C199.087 184.901 199.124 185.27 199.199 185.606C199.273 185.933 199.39 186.217 199.549 186.46C199.717 186.703 199.931 186.894 200.193 187.034C200.463 187.165 200.795 187.23 201.187 187.23ZM219.894 186.11C219.894 185.811 219.777 185.583 219.544 185.424C219.31 185.256 219.021 185.125 218.676 185.032C218.33 184.929 217.952 184.836 217.542 184.752C217.14 184.668 216.767 184.556 216.422 184.416C216.076 184.276 215.787 184.089 215.554 183.856C215.32 183.613 215.204 183.277 215.204 182.848C215.204 182.493 215.278 182.19 215.428 181.938C215.586 181.686 215.792 181.481 216.044 181.322C216.296 181.154 216.59 181.033 216.926 180.958C217.262 180.874 217.612 180.832 217.976 180.832C218.629 180.832 219.189 180.916 219.656 181.084C220.132 181.243 220.51 181.411 220.79 181.588L220.342 182.47C220.034 182.302 219.698 182.143 219.334 181.994C218.979 181.835 218.531 181.756 217.99 181.756C217.784 181.756 217.579 181.779 217.374 181.826C217.178 181.863 216.996 181.924 216.828 182.008C216.669 182.092 216.538 182.204 216.436 182.344C216.342 182.475 216.296 182.638 216.296 182.834C216.296 183.077 216.412 183.263 216.646 183.394C216.879 183.525 217.168 183.637 217.514 183.73C217.859 183.814 218.232 183.898 218.634 183.982C219.044 184.057 219.422 184.169 219.768 184.318C220.113 184.467 220.402 184.668 220.636 184.92C220.869 185.172 220.986 185.513 220.986 185.942C220.986 186.586 220.729 187.118 220.216 187.538C219.712 187.958 218.951 188.168 217.934 188.168C217.626 188.168 217.322 188.14 217.024 188.084C216.725 188.028 216.445 187.953 216.184 187.86C215.922 187.767 215.684 187.664 215.47 187.552C215.255 187.431 215.078 187.309 214.938 187.188L215.498 186.278C215.61 186.39 215.759 186.507 215.946 186.628C216.132 186.74 216.338 186.843 216.562 186.936C216.786 187.029 217.024 187.104 217.276 187.16C217.537 187.216 217.798 187.244 218.06 187.244C218.312 187.244 218.545 187.225 218.76 187.188C218.984 187.141 219.18 187.076 219.348 186.992C219.516 186.899 219.646 186.782 219.74 186.642C219.842 186.493 219.894 186.315 219.894 186.11ZM222.954 184.5C222.954 183.371 223.248 182.479 223.836 181.826C224.424 181.163 225.264 180.832 226.356 180.832C226.944 180.832 227.448 180.93 227.868 181.126C228.298 181.313 228.652 181.569 228.932 181.896C229.212 182.223 229.418 182.61 229.548 183.058C229.688 183.506 229.758 183.987 229.758 184.5C229.758 185.06 229.684 185.569 229.534 186.026C229.385 186.474 229.166 186.857 228.876 187.174C228.587 187.491 228.228 187.739 227.798 187.916C227.378 188.084 226.898 188.168 226.356 188.168C225.778 188.168 225.274 188.075 224.844 187.888C224.415 187.692 224.06 187.431 223.78 187.104C223.5 186.777 223.29 186.39 223.15 185.942C223.02 185.494 222.954 185.013 222.954 184.5ZM224.116 184.5C224.116 184.827 224.154 185.153 224.228 185.48C224.312 185.807 224.443 186.101 224.62 186.362C224.798 186.623 225.026 186.833 225.306 186.992C225.596 187.151 225.946 187.23 226.356 187.23C227.103 187.23 227.663 187.001 228.036 186.544C228.419 186.077 228.61 185.396 228.61 184.5C228.61 184.164 228.568 183.837 228.484 183.52C228.41 183.193 228.279 182.899 228.092 182.638C227.915 182.377 227.682 182.167 227.392 182.008C227.112 181.849 226.767 181.77 226.356 181.77C225.61 181.77 225.05 181.999 224.676 182.456C224.303 182.913 224.116 183.595 224.116 184.5ZM231.349 184.5C231.349 183.371 231.643 182.479 232.231 181.826C232.819 181.163 233.659 180.832 234.751 180.832C235.339 180.832 235.843 180.93 236.263 181.126C236.692 181.313 237.047 181.569 237.327 181.896C237.607 182.223 237.812 182.61 237.943 183.058C238.083 183.506 238.153 183.987 238.153 184.5C238.153 185.06 238.078 185.569 237.929 186.026C237.779 186.474 237.56 186.857 237.271 187.174C236.981 187.491 236.622 187.739 236.193 187.916C235.773 188.084 235.292 188.168 234.751 188.168C234.172 188.168 233.668 188.075 233.239 187.888C232.809 187.692 232.455 187.431 232.175 187.104C231.895 186.777 231.685 186.39 231.545 185.942C231.414 185.494 231.349 185.013 231.349 184.5ZM232.511 184.5C232.511 184.827 232.548 185.153 232.623 185.48C232.707 185.807 232.837 186.101 233.015 186.362C233.192 186.623 233.421 186.833 233.701 186.992C233.99 187.151 234.34 187.23 234.751 187.23C235.497 187.23 236.057 187.001 236.431 186.544C236.813 186.077 237.005 185.396 237.005 184.5C237.005 184.164 236.963 183.837 236.879 183.52C236.804 183.193 236.673 182.899 236.487 182.638C236.309 182.377 236.076 182.167 235.787 182.008C235.507 181.849 235.161 181.77 234.751 181.77C234.004 181.77 233.444 181.999 233.071 182.456C232.697 182.913 232.511 183.595 232.511 184.5ZM240.247 183.45C240.247 183.366 240.243 183.259 240.233 183.128C240.233 182.988 240.229 182.848 240.219 182.708C240.21 182.559 240.196 182.414 240.177 182.274C240.168 182.134 240.154 182.013 240.135 181.91H239.197V181H241.073L241.199 182.134H241.269C241.363 181.975 241.484 181.821 241.633 181.672C241.792 181.513 241.974 181.373 242.179 181.252C242.385 181.121 242.613 181.019 242.865 180.944C243.117 180.869 243.383 180.832 243.663 180.832C244.093 180.832 244.471 180.879 244.797 180.972C245.133 181.065 245.409 181.233 245.623 181.476C245.847 181.709 246.015 182.031 246.127 182.442C246.239 182.843 246.295 183.357 246.295 183.982V188H245.203V184.192C245.203 183.417 245.077 182.834 244.825 182.442C244.573 182.05 244.116 181.854 243.453 181.854C243.211 181.854 242.973 181.905 242.739 182.008C242.515 182.101 242.31 182.227 242.123 182.386C241.937 182.545 241.773 182.731 241.633 182.946C241.493 183.151 241.391 183.371 241.325 183.604V188H240.247V183.45Z" fill="#112950"/>
<defs>
<radialGradient id="paint0_radial" cx="0" cy="0" r="1" gradientUnits="userSpaceOnUse" gradientTransform="translate(201.5 201.5) rotate(90) scale(201.5)">
<stop stop-color="#FFEBEB"/>
<stop offset="0.0001" stop-color="#FDFDFD"/>
<stop offset="0.838542" stop-color="#2C7BEB" stop-opacity="0"/>
</radialGradient>
</defs>
</svg>
